# xmcd
#
# Track frame offsets:
#	150
#	12841
#	29759
#	43465
#	59603
#	77079
#	97421
#	112812
#	120283
#	136052
#	153703
#	168006
#	187208
#	201124
#
# Disc length: 3178 seconds
#
# Revision: 0
# Processed by: cddbd v1.5.1PL0 Copyright (c) Steve Scherf et al.
# Submitted via: EasyCDDAExtractor 8.2.1.1
#
DISCID=c30c680e
DTITLE=Bobby Angel - Die Wals Van Die Lewe
DYEAR=1999
DGENRE=Country
TTITLE0=Storms Of Life
TTITLE1=Livin' On Love
TTITLE2=Die Wals Van Die Lewe
TTITLE3=Back Where My Heart Belongs
TTITLE4=A Couple More Years
TTITLE5=Margarita
TTITLE6=The Gambler
TTITLE7=C'est La Vie
TTITLE8=I Burn A Candle
TTITLE9=Old Hippie
TTITLE10=Laat Ons Liefde Leer Lewe
TTITLE11=Back Home Again
TTITLE12=Hello Love
TTITLE13=Angel Medley
EXTD=
EXTT0=
EXTT1=
EXTT2=
EXTT3=
EXTT4=
EXTT5=
EXTT6=
EXTT7=
EXTT8=
EXTT9=
EXTT10=
EXTT11=
EXTT12=
EXTT13=
PLAYORDER=
